<svg version="1.1" id="Layer_1" xmlns="http://www.w3.org/2000/svg" xmlns:xlink="http://www.w3.org/1999/xlink" x="0px" y="0px"
	 width="100%" viewBox="0 0 368 304" enable-background="new 0 0 368 304" xml:space="preserve">
<path fill="#FDFEFE" opacity="1.000000" stroke="none" 
	d="
M369.000000,202.000000 
	C369.000000,236.318970 369.000000,270.637939 369.000000,304.978455 
	C246.399017,304.978455 123.798035,304.978455 1.098525,304.978455 
	C1.098525,203.774826 1.098525,102.549530 1.098525,1.000000 
	C90.687302,1.000000 180.374985,1.000000 270.620728,1.396129 
	C269.899139,7.902195 268.619537,14.012134 267.230652,20.472229 
	C266.817596,21.744324 266.513794,22.666258 265.799072,23.454052 
	C264.249481,23.235920 263.110779,23.151930 261.723633,22.867691 
	C260.632446,22.565611 259.789734,22.463779 258.651489,22.195484 
	C257.906250,22.021273 257.456512,22.013527 256.803040,21.775852 
	C253.124069,19.957060 249.648804,18.368195 246.173538,16.779329 
	C247.886505,21.061598 249.854492,24.195389 252.045013,27.165033 
	C253.547806,29.202330 255.359985,31.011417 257.056458,33.277660 
	C257.104767,34.106544 257.130493,34.580269 256.845581,35.169716 
	C255.507660,36.090443 254.480362,36.895458 253.203156,37.712662 
	C252.657700,37.875160 252.362152,38.025475 251.705048,38.176117 
	C246.686554,40.618767 242.029617,43.061081 237.372665,45.503395 
	C240.623657,46.972496 243.369766,47.330441 246.127319,47.531151 
	C248.602066,47.711281 251.092072,47.833996 253.570587,47.776531 
	C257.901215,47.676125 261.620544,47.915169 258.703094,53.882015 
	C258.616882,54.058392 259.235687,54.579502 259.371521,55.270927 
	C259.199005,56.084942 259.180695,56.567902 258.903809,57.322514 
	C257.821716,61.812752 256.998230,66.031334 256.174744,70.249924 
	C256.746979,70.525337 257.319214,70.800758 257.891449,71.076172 
	C258.948669,69.395462 260.005920,67.714752 261.348206,65.867065 
	C265.783264,62.052353 269.933258,58.404613 274.199524,55.053581 
	C275.217224,56.230309 276.118652,57.110321 277.074036,58.327515 
	C280.584412,62.724720 284.040863,66.784744 287.497284,70.844765 
	C287.910675,70.591080 288.324036,70.337402 288.737427,70.083717 
	C287.770416,64.955360 286.693115,59.844757 285.864288,54.694160 
	C284.825989,48.241764 285.178894,47.986290 291.618011,47.681549 
	C296.614868,47.445072 301.601501,46.991978 306.592682,46.635162 
	C306.705231,46.121460 306.817810,45.607758 306.930389,45.094055 
	C300.924622,42.145889 294.918884,39.197723 288.718262,35.927048 
	C288.349060,35.423714 288.174683,35.242897 288.201782,34.737228 
	C288.408325,33.912621 288.413422,33.412865 288.660278,32.708466 
	C289.334106,31.792725 289.766205,31.081627 290.502563,30.216444 
	C294.062592,25.741955 297.318390,21.421553 300.574188,17.101151 
	C300.220947,16.635502 299.867706,16.169853 299.514465,15.704206 
	C295.506622,17.696947 291.498749,19.689690 287.133484,21.711418 
	C285.429962,22.230793 284.083832,22.721184 282.763794,23.049263 
	C282.789886,22.886951 282.463470,22.842121 282.463470,22.842121 
	C282.463470,22.842121 282.588043,23.249825 282.336670,23.407808 
	C281.756348,23.786417 281.427399,24.007044 280.792603,24.016901 
	C277.991211,16.204086 275.495605,8.602040 273.000000,0.999997 
	C304.933197,1.000000 336.866425,1.000000 369.000000,1.000000 
	C369.000000,38.687325 369.000000,76.375000 368.647125,114.569763 
	C366.530365,117.856567 363.285065,120.610367 363.235870,123.420113 
	C362.825317,146.881744 362.938416,170.353989 363.067261,193.822098 
	C363.088379,197.665421 364.925964,200.795868 369.000000,202.000000 
M254.506836,169.168365 
	C254.287628,169.424927 254.068420,169.681488 253.238586,170.195694 
	C252.526352,170.712845 251.814117,171.230011 250.509247,171.521454 
	C249.630737,172.331360 248.752213,173.141266 247.261200,174.155243 
	C246.178284,174.851593 245.095383,175.547928 243.354263,176.283157 
	C242.226822,177.184479 241.099396,178.085785 239.305084,179.070465 
	C238.559708,179.543213 237.814316,180.015961 236.475677,180.363647 
	C235.874969,180.852936 235.274246,181.342224 234.041885,182.098495 
	C226.721008,185.912399 219.400131,189.726303 211.386597,193.391571 
	C208.372772,194.679459 205.348251,195.943024 202.347183,197.259964 
	C194.404343,200.745422 186.471634,204.253998 177.806885,207.825104 
	C174.544327,208.945862 171.281784,210.066620 167.310242,211.139557 
	C165.887817,211.813126 164.465408,212.486694 162.377167,213.165527 
	C161.959198,213.306610 161.541229,213.447708 160.400787,213.345139 
	C135.058945,221.158066 109.433731,227.669037 82.997330,230.616791 
	C79.295654,231.029526 75.687958,232.285126 71.296005,233.069443 
	C70.556404,233.144821 69.816795,233.220215 68.395935,233.017197 
	C61.617104,233.745407 54.838268,234.473633 47.187496,235.103073 
	C45.166927,235.246185 43.146358,235.389297 40.304810,235.213684 
	C37.009083,234.986130 33.713360,234.758560 30.417635,234.531006 
	C30.326834,235.118378 30.236034,235.705765 30.145233,236.293152 
	C35.333477,239.252457 41.049236,240.476105 47.730976,240.774658 
	C48.166794,240.780594 48.602608,240.786514 49.509228,241.365356 
	C52.042210,241.752167 54.575195,242.138977 57.810570,242.771851 
	C58.551109,242.810623 59.291645,242.849411 60.607437,243.407547 
	C65.434586,243.794434 70.261742,244.181320 75.817337,244.768127 
	C76.569069,244.754715 77.320808,244.741302 78.581650,245.272415 
	C82.332855,245.394318 85.460892,246.474564 87.275871,250.187424 
	C87.689400,251.033356 89.063652,251.409653 90.300339,252.584595 
	C92.186829,254.439835 94.073318,256.295074 96.118973,258.611450 
	C96.315071,258.899261 96.585648,259.066925 97.189056,259.668488 
	C98.113846,260.452209 99.038635,261.235931 100.086746,262.660278 
	C101.078804,263.339172 102.070869,264.018097 103.554474,265.129364 
	C104.969849,266.120728 106.385223,267.112061 108.015236,268.720978 
	C109.033836,269.347107 110.052429,269.973236 111.617645,271.064758 
	C117.794220,274.516541 123.970795,277.968353 130.147369,281.420135 
	C130.641785,280.988464 131.136200,280.556793 131.630630,280.125122 
	C129.285950,276.704926 126.941269,273.284698 124.508560,269.399475 
	C124.508560,269.399475 124.219429,269.024780 124.141350,268.270691 
	C121.501579,263.329956 118.861809,258.389221 116.296082,252.931152 
	C116.143555,252.624176 115.991028,252.317184 115.865776,251.246445 
	C115.158447,248.776794 114.451126,246.307144 113.688972,243.646057 
	C114.976105,243.480835 115.771019,243.395340 116.560593,243.274887 
	C124.509331,242.062210 124.431580,242.093903 127.562271,249.375870 
	C129.198746,253.182297 130.857346,257.038483 133.039978,260.539215 
	C138.617844,269.485596 143.376389,279.229614 153.969788,284.714294 
	C155.225357,285.513641 156.418182,286.441284 157.746964,287.090881 
	C164.792130,290.535065 165.858109,289.841370 165.859268,281.947418 
	C165.861298,268.116516 165.753418,254.283737 165.994034,240.457001 
	C166.025589,238.643234 167.414688,236.053345 168.929199,235.256744 
	C171.080734,234.125076 173.931671,234.323105 176.492569,233.951706 
	C176.492569,250.757141 176.474991,267.199463 176.502548,283.641693 
	C176.511642,289.059845 178.197632,290.136932 183.265717,288.033813 
	C192.700668,284.118530 200.032303,277.341339 205.027435,268.843475 
	C210.799927,259.023163 215.067963,248.318542 220.640884,237.916107 
	C220.763031,236.945297 220.885178,235.974503 220.971359,234.298340 
	C221.346451,233.200226 221.721558,232.102112 222.751343,230.887939 
	C222.894119,229.611221 223.036911,228.334518 223.084991,226.284073 
	C223.061752,225.504868 223.038513,224.725662 222.910645,223.287231 
	C221.939987,223.511444 220.969315,223.735657 219.448105,224.326401 
	C218.598999,224.453445 217.749893,224.580505 216.419708,224.293411 
	C215.285690,223.576645 214.151688,222.859879 213.748016,221.982681 
	C218.105957,219.989456 222.596542,218.239258 226.792480,215.949219 
	C234.096436,211.962875 241.671906,210.122513 250.069077,210.662216 
	C257.496613,211.139572 264.984589,210.610046 272.444183,210.688950 
	C275.288818,210.719040 277.487213,210.047714 277.914734,206.960846 
	C278.928802,199.639114 279.789032,192.296082 280.933868,184.425201 
	C280.999084,184.045227 281.064270,183.665268 281.775146,183.045654 
	C283.694763,181.484131 285.643097,179.956482 287.529175,178.355453 
	C298.017609,169.452087 307.630463,159.787720 314.728058,147.153458 
	C315.046631,146.431259 315.365204,145.709061 315.998016,144.560822 
	C316.071411,144.220490 316.144775,143.880157 316.753387,143.190857 
	C317.066772,142.456573 317.380188,141.722305 317.997009,140.549149 
	C318.067322,140.204971 318.137634,139.860809 318.731415,139.169632 
	C318.966644,138.441742 319.201904,137.713867 319.833588,136.387512 
	C319.986298,135.455002 320.139038,134.522507 320.907166,133.131577 
	C324.261414,124.674896 324.021820,116.150711 320.260925,108.038078 
	C314.573029,95.768585 303.960327,89.238022 291.455414,84.761024 
	C294.150299,90.662788 296.716736,96.283264 299.209961,102.601967 
	C299.327576,103.050697 299.445190,103.499420 299.168579,104.484291 
	C298.370789,110.117409 297.797424,115.795349 296.685059,121.365639 
	C296.086182,124.364388 294.563416,127.178635 293.097565,130.607086 
	C292.633148,131.562729 292.168732,132.518372 291.128510,133.815964 
	C290.241089,135.236053 289.353668,136.656143 287.922089,138.509613 
	C285.929016,140.965851 283.935944,143.422104 281.298309,146.074539 
	C278.124695,149.347229 274.951080,152.619919 271.205658,156.190903 
	C269.475769,157.806763 267.745911,159.422623 265.315948,161.073517 
	C263.425110,162.658630 261.534271,164.243744 259.030609,165.999252 
	C258.035767,166.746582 257.040924,167.493896 255.579803,168.267288 
	C255.271378,168.428009 255.115768,168.682312 255.028168,169.015213 
	C255.028168,169.015213 255.022232,169.101105 254.506836,169.168365 
M201.427521,60.611042 
	C197.628616,60.050480 193.829727,59.489918 189.443176,58.523785 
	C183.648697,57.325233 177.866760,56.060936 172.054947,54.953342 
	C168.690201,54.312103 165.277390,53.923183 161.256821,53.226280 
	C160.819763,53.226040 160.382690,53.225800 159.393585,52.679981 
	C153.651947,52.163521 147.859177,50.912865 142.181076,51.308399 
	C134.317368,51.856171 126.406807,53.311932 120.144051,60.103909 
	C118.709457,61.659630 117.274864,63.215347 115.281090,65.164543 
	C113.344032,68.130089 111.406982,71.095627 109.469933,74.061172 
	C109.934189,74.468079 110.398445,74.874992 110.862701,75.281906 
	C114.232941,73.155190 117.603180,71.028473 121.715088,68.936623 
	C123.459389,68.223709 125.203682,67.510796 127.616501,66.805481 
	C128.043121,66.685287 128.469727,66.565086 129.484680,66.881874 
	C136.245941,67.683754 143.194733,63.868446 149.546494,67.011963 
	C148.277039,73.416969 147.128723,79.210808 145.687775,85.682297 
	C144.854889,88.145950 144.022003,90.609612 142.629684,93.492531 
	C137.126144,105.330864 131.622604,117.169197 125.675613,129.469055 
	C125.048103,130.798538 124.420586,132.128021 123.240990,133.806259 
	C122.870186,134.551346 122.499390,135.296432 121.562584,136.424896 
	C120.847214,137.871475 120.131844,139.318054 118.807602,141.028000 
	C116.126961,145.328186 113.446320,149.628372 110.172119,154.239227 
	C107.699257,157.586441 105.226395,160.933670 102.753532,164.280884 
	C103.165253,164.666641 103.576965,165.052399 103.988678,165.438171 
	C107.668457,162.646393 111.348236,159.854614 115.682922,156.910187 
	C123.963516,149.140991 132.902802,141.949860 140.357269,133.455643 
	C149.586395,122.939240 157.583984,111.342049 166.682953,99.983780 
	C167.001022,99.301422 167.319092,98.619064 168.111481,97.444878 
	C169.111038,95.698608 170.110596,93.952332 171.681091,91.973228 
	C172.022873,91.297760 172.364655,90.622284 173.047256,89.346420 
	C174.109802,87.371452 175.172363,85.396484 176.773590,83.104912 
	C177.084915,82.385902 177.396240,81.666893 178.166351,80.414467 
	C179.136261,78.323372 180.106171,76.232277 181.669586,73.926857 
	C182.064041,73.231628 182.458496,72.536407 183.768219,71.740707 
	C186.403107,71.982803 189.033890,72.290627 191.673615,72.455002 
	C200.494339,73.004234 209.423508,75.131042 218.607132,70.790970 
	C219.030029,70.647644 219.452911,70.504311 220.588593,70.665695 
	C223.793198,69.152168 226.997818,67.638641 230.760406,65.831085 
	C231.498108,65.539848 232.235809,65.248604 233.103928,65.190536 
	C233.173553,65.238121 233.243179,65.285706 233.312805,65.333305 
	C233.193039,65.215385 233.073288,65.097466 232.910294,64.327942 
	C233.065308,63.921207 233.220322,63.514469 234.029633,63.167229 
	C235.241287,63.167229 236.452927,63.167229 238.160751,63.167229 
	C236.103622,57.350822 232.875824,60.152592 229.293961,61.127762 
	C228.583893,61.255768 227.873825,61.383770 226.290863,61.202564 
	C218.817749,61.256622 211.344635,61.310680 203.253708,61.188927 
	C202.827179,61.179379 202.400635,61.169827 201.427521,60.611042 
M163.212662,26.015368 
	C158.669510,33.542133 161.163544,41.583843 169.368332,45.863575 
	C175.613602,49.121197 182.773346,47.452301 187.504410,41.636139 
	C191.581711,36.623680 191.800247,30.579399 187.855591,25.256535 
	C186.885910,24.180202 185.916229,23.103870 184.676147,21.380024 
	C178.586838,16.797606 172.284210,16.915218 166.979523,21.837893 
	C166.641342,22.200039 166.303146,22.562185 165.361572,23.063366 
	C164.957611,23.720234 164.553650,24.377102 163.905258,25.311003 
	C163.905258,25.311003 163.828079,25.672314 163.212662,26.015368 
M198.909454,110.203651 
	C205.942505,101.579948 204.070862,93.889618 193.963165,91.131149 
	C189.683044,89.963066 185.138641,89.663460 180.687378,89.296120 
	C179.639084,89.209602 178.481689,90.444969 176.856018,91.546928 
	C173.609238,95.947586 170.362457,100.348236 167.005936,104.897606 
	C173.574265,106.694847 179.725067,108.377846 186.054947,110.655922 
	C186.655670,111.199821 187.256378,111.743713 187.871475,112.655029 
	C187.871475,112.655029 187.996613,113.000778 187.874954,113.826050 
	C187.594131,116.776039 187.313293,119.726021 187.032471,122.676010 
	C187.414078,122.815926 187.795700,122.955849 188.177307,123.095772 
	C191.045227,119.714897 193.913147,116.334015 197.180923,112.535492 
	C197.550537,111.876663 197.920166,111.217834 198.909454,110.203651 
M230.636261,271.747681 
	C234.905396,268.652771 239.416946,265.839020 243.396286,262.408020 
	C253.624664,253.589096 262.108978,243.328995 268.131348,230.547638 
	C268.195648,230.214249 268.259918,229.880859 268.901154,229.161285 
	C269.729401,227.277206 270.557617,225.393143 271.385864,223.509079 
	C269.365784,223.117767 267.350433,222.420181 265.324768,222.388687 
	C257.037598,222.259811 248.745667,222.428879 240.458878,222.288101 
	C237.061386,222.230377 234.793594,222.699341 234.376999,226.858932 
	C234.036728,230.256516 232.931610,233.639969 231.751999,236.879074 
	C228.435287,245.986481 224.905060,255.016144 221.099243,264.620392 
	C220.611725,265.587738 220.124207,266.555115 219.067154,267.883423 
	C215.945099,272.484344 212.823029,277.085266 209.700974,281.686157 
	C210.199936,282.134735 210.698883,282.583282 211.197845,283.031830 
	C215.973877,280.165161 220.749908,277.298523 226.049316,274.307251 
	C226.349182,274.114777 226.649063,273.922302 227.562103,273.748657 
	C228.141068,273.217499 228.720016,272.686371 229.669281,272.044678 
	C229.669281,272.044678 229.944504,271.773407 230.636261,271.747681 
M179.000534,196.950531 
	C179.000534,177.031418 179.000534,157.112289 179.000534,137.193176 
	C178.786087,137.196198 178.571625,137.199234 178.357178,137.202255 
	C178.357178,158.039612 178.357178,178.876968 178.357178,199.714325 
	C178.531006,199.716644 178.704849,199.718948 178.878677,199.721252 
	C178.919418,199.076065 178.960144,198.430862 179.000534,196.950531 
M211.933502,183.455368 
	C211.933502,167.722549 211.933502,151.989731 211.933502,136.256912 
	C211.769211,136.260605 211.604904,136.264297 211.440613,136.267990 
	C211.440613,152.183578 211.440613,168.099182 211.933502,183.455368 
M259.075653,122.590576 
	C259.075653,134.300659 259.075653,146.010742 259.075653,157.720810 
	C259.237701,157.716187 259.399750,157.711563 259.561798,157.706940 
	C259.561798,145.819504 259.561798,133.932053 259.075653,122.590576 
M117.004044,188.411118 
	C117.004044,198.894913 117.004044,209.378708 117.004044,219.862518 
	C117.969864,209.279129 117.973877,198.701462 117.931572,188.123978 
	C117.930939,187.965912 117.355263,187.810135 117.004044,188.411118 
M85.021523,214.386383 
	C85.021523,206.329102 85.021523,198.271805 85.021523,190.214523 
	C84.673874,190.219849 84.326233,190.225174 83.978584,190.230499 
	C83.978584,195.520493 83.978584,200.810471 83.978584,206.100464 
	C83.978584,211.325165 83.978584,216.549866 83.978584,221.774567 
	C84.326241,221.764282 84.673889,221.754013 85.021545,221.743744 
	C85.021545,219.609085 85.021545,217.474442 85.021523,214.386383 
M111.951218,184.002289 
	C103.700768,184.002289 95.450325,184.002289 87.199875,184.002289 
	C87.206894,184.215088 87.213905,184.427902 87.220924,184.640701 
	C96.385895,184.640701 105.550865,184.640701 114.715828,184.640701 
	C114.715996,184.467758 114.716164,184.294800 114.716324,184.121857 
	C114.073013,184.081802 113.429710,184.041763 111.951218,184.002289 
M84.277458,185.818802 
	C84.386436,185.972794 84.495415,186.126785 84.604401,186.280777 
	C84.583595,186.065933 84.562790,185.851105 84.277458,185.818802 
z"/>
<path fill="#F2FAFF" opacity="1.000000" stroke="none" 
	d="
M369.000000,201.531342 
	C364.925964,200.795868 363.088379,197.665421 363.067261,193.822098 
	C362.938416,170.353989 362.825317,146.881744 363.235870,123.420113 
	C363.285065,120.610367 366.530365,117.856567 368.647125,115.038422 
	C369.000000,143.687561 369.000000,172.375122 369.000000,201.531342 
z"/>
<path fill="#80CDF7" opacity="1.000000" stroke="none" 
	d="
M267.339935,20.122072 
	C268.619537,14.012134 269.899139,7.902195 271.089355,1.396129 
	C271.444458,1.000000 271.888885,1.000000 272.666687,0.999997 
	C275.495605,8.602040 277.991211,16.204086 280.715698,24.313190 
	C279.766174,24.102989 278.018951,23.656462 277.522949,22.614388 
	C276.343445,20.136381 275.947998,17.292231 274.839813,14.769972 
	C274.360779,13.679615 272.903870,13.018896 271.891144,12.163013 
	C271.247864,13.194478 270.567810,14.205143 269.969910,15.262272 
	C269.063263,16.865248 268.213745,18.500521 267.339935,20.122072 
z"/>
<path fill="#3AB6FE" opacity="1.000000" stroke="none" 
	d="
M299.562836,103.948143 
	C299.445190,103.499420 299.327576,103.050697 299.481262,101.961273 
	C299.962341,99.712700 300.172058,98.104828 300.492218,95.650505 
	C302.789764,96.224106 305.189728,96.158386 306.596283,97.308075 
	C309.874573,99.987663 312.859711,103.095535 315.603088,106.335182 
	C317.400391,108.457565 319.565582,111.014046 319.818268,113.550224 
	C320.425446,119.644554 320.003235,125.841438 319.646729,132.037064 
	C317.506226,134.329315 315.190460,136.337997 314.013794,138.875000 
	C308.407288,150.963089 299.889801,160.632721 290.245270,169.624390 
	C286.281036,173.320282 279.923157,175.940186 281.129486,183.285294 
	C281.064270,183.665268 280.999084,184.045227 280.460052,184.711044 
	C278.753479,186.534805 276.960815,187.895187 276.405060,189.647781 
	C275.264679,193.243851 275.047577,197.131805 273.918060,200.732635 
	C273.414001,202.339676 271.715363,204.641830 270.403168,204.750610 
	C262.336365,205.419388 254.217636,205.427307 246.131683,205.913345 
	C242.011154,206.161041 237.609390,206.163467 233.886200,207.654175 
	C226.410950,210.647064 219.246552,214.458572 212.128220,218.258850 
	C210.953064,218.886246 210.663773,221.172989 209.665527,222.894272 
	C207.601471,223.750717 205.836945,224.405777 203.682770,225.020996 
	C200.559021,226.010025 197.824921,227.038864 195.090820,228.067703 
	C195.336990,228.860107 195.583160,229.652512 195.829330,230.444916 
	C198.890625,229.593262 201.951920,228.741623 205.396912,227.827698 
	C207.851501,227.485657 209.922409,227.205917 212.183578,227.183441 
	C214.831207,227.014786 215.998718,228.075958 216.773666,230.465210 
	C218.572021,236.009811 215.483139,240.941528 215.070038,246.195175 
	C214.980057,247.339325 213.207733,248.369919 212.171997,249.414917 
	C211.373032,250.221008 210.142212,250.810318 209.738358,251.764694 
	C204.616928,263.867462 195.552063,273.191498 187.572098,283.263550 
	C186.512466,284.600983 184.518982,285.198517 182.339676,286.511139 
	C181.470734,279.964111 180.293701,274.437531 180.096573,268.876190 
	C179.745865,258.983337 180.023209,249.069244 179.964737,239.164459 
	C179.943390,235.547058 179.807510,231.967590 174.637512,231.975693 
	C168.045685,231.986038 164.020081,234.829803 164.013184,239.796524 
	C163.994003,253.613586 164.004593,267.430695 164.003448,281.247772 
	C164.003311,283.008942 164.003418,284.770081 164.003418,287.521790 
	C160.372971,286.086334 157.698456,285.028870 155.013550,283.591370 
	C154.187149,281.504761 153.714874,279.487366 152.498764,278.142609 
	C145.220856,270.094788 136.257599,263.356873 132.922394,252.313950 
	C132.739685,251.709000 132.300308,251.171310 131.934128,250.633850 
	C130.432831,248.430267 128.637436,246.376175 127.462341,244.012497 
	C125.440140,239.944855 121.569382,238.353729 118.088882,239.369446 
	C115.266670,240.193069 110.964645,242.056091 111.728256,247.205109 
	C111.275864,249.226562 110.569389,251.196671 111.045586,252.819794 
	C112.103889,256.426971 113.919212,259.808197 115.056671,263.398499 
	C115.370644,264.389526 114.384399,265.792419 113.997368,267.003174 
	C114.000000,267.000000 113.994133,267.005280 113.960106,266.654755 
	C110.946571,264.205627 107.967064,262.107025 104.656479,260.008331 
	C103.883942,260.007538 103.442497,260.006805 102.964012,259.658081 
	C101.285263,258.206055 99.643555,257.102112 97.966629,255.652054 
	C93.125832,249.763290 88.320244,244.220627 83.238548,238.359497 
	C84.795372,237.762207 86.117561,237.071991 87.524200,236.744675 
	C97.321304,234.464996 107.164322,232.377457 116.937973,230.003357 
	C130.026688,226.823959 143.216263,223.934280 156.086090,220.012924 
	C170.089737,215.746094 184.131058,211.248230 197.511826,205.381866 
	C214.088150,198.114502 230.017914,189.367508 246.170807,181.149261 
	C247.345734,180.551483 248.064407,179.056915 249.211578,177.873672 
	C249.697556,177.571701 249.882019,177.314316 250.298203,176.861588 
	C255.899185,173.066620 261.410645,169.690430 266.420532,165.686676 
	C277.147003,157.114426 286.729370,147.352264 294.465363,135.961594 
	C295.702942,134.139374 295.501648,131.339935 295.983185,128.609787 
	C297.547058,123.341774 299.548523,118.540138 300.470032,113.539482 
	C301.029877,110.501259 299.921692,107.155663 299.562836,103.948143 
z"/>
<path fill="#3CB5FD" opacity="1.000000" stroke="none" 
	d="
M267.230652,20.472233 
	C268.213745,18.500521 269.063263,16.865248 269.969910,15.262272 
	C270.567810,14.205143 271.247864,13.194478 271.891144,12.163013 
	C272.903870,13.018896 274.360779,13.679615 274.839813,14.769972 
	C275.947998,17.292231 276.343445,20.136381 277.522949,22.614388 
	C278.018951,23.656462 279.766174,24.102989 281.021484,24.523960 
	C281.427399,24.007044 281.756348,23.786417 282.374390,23.405231 
	C282.663422,23.244669 282.737671,23.211575 282.737671,23.211575 
	C284.083832,22.721184 285.429962,22.230793 287.526184,21.842098 
	C288.916962,24.752708 289.557617,27.561625 290.198303,30.370535 
	C289.766205,31.081627 289.334106,31.792725 288.442017,32.775841 
	C287.988098,33.719269 287.994202,34.390671 288.000305,35.062077 
	C288.174683,35.242897 288.349060,35.423714 288.803955,36.245224 
	C290.859314,38.242085 292.634186,39.598259 294.447296,40.983646 
	C294.145844,41.735325 293.809265,42.574471 293.465210,43.432327 
	C294.976868,43.909306 296.245544,44.309616 297.514221,44.709927 
	C297.488556,45.139614 297.462860,45.569298 297.437164,45.998985 
	C294.918213,45.998985 292.399231,45.993549 289.880280,46.000050 
	C283.359222,46.016876 283.380066,46.017075 283.945190,52.217793 
	C284.062622,53.506409 283.962250,54.814877 283.962250,56.028988 
	C281.448975,56.739059 279.234528,57.364697 277.020111,57.990334 
	C276.118652,57.110321 275.217224,56.230309 274.114563,54.734306 
	C272.365631,54.486488 270.676910,54.577942 269.299316,55.279957 
	C266.361694,56.776955 263.595764,58.278881 260.944366,54.555779 
	C262.670074,47.138786 261.829407,46.075996 254.497101,46.038136 
	C251.134277,46.020771 247.771286,46.035183 244.408371,46.035183 
	C244.327652,45.598911 244.246933,45.162640 244.166229,44.726368 
	C246.799683,42.542835 249.433136,40.359306 252.066605,38.175781 
	C252.362152,38.025475 252.657700,37.875160 253.572998,37.785778 
	C255.180557,36.915806 256.168396,35.984901 257.156219,35.053997 
	C257.130493,34.580269 257.104767,34.106544 257.019501,32.930943 
	C256.090149,30.511126 255.220352,28.793182 254.480713,27.332325 
	C255.383530,25.428602 256.195129,23.717190 257.006744,22.005779 
	C257.456512,22.013527 257.906250,22.021273 258.736084,22.504055 
	C260.075806,23.319759 261.035400,23.660427 262.299042,24.130920 
	C263.805359,24.036560 265.007690,23.812374 266.209991,23.588190 
	C266.513794,22.666258 266.817596,21.744324 267.230652,20.472233 
z"/>
<path fill="#3CB5FD" opacity="1.000000" stroke="none" 
	d="
M219.636658,267.522461 
	C220.124207,266.555115 220.611725,265.587738 221.595367,264.265381 
	C223.061447,262.436249 224.375412,261.083557 224.945663,259.468323 
	C228.735489,248.733566 232.323059,237.927399 236.109406,227.191360 
	C236.527893,226.004791 237.766968,224.241089 238.658600,224.221069 
	C248.253204,224.005661 257.854462,224.086838 267.571716,224.086838 
	C267.877594,226.306473 268.100891,227.926971 268.324219,229.547470 
	C268.259918,229.880859 268.195648,230.214249 267.651306,230.817978 
	C264.738190,233.161453 261.640259,234.807648 259.987244,237.381714 
	C252.860123,248.479919 243.895844,257.652252 233.261642,265.394073 
	C231.527130,266.656799 231.019302,269.604523 229.944519,271.773407 
	C229.944504,271.773407 229.669281,272.044678 229.151123,272.066650 
	C228.071609,272.635651 227.510269,273.182739 226.948944,273.729828 
	C226.649063,273.922302 226.349182,274.114777 225.407898,274.259705 
	C222.578827,273.809540 220.391159,273.406952 218.243195,273.011688 
	C218.860916,270.578308 219.248795,269.050385 219.636658,267.522461 
z"/>
<path fill="#3FB4FC" opacity="1.000000" stroke="none" 
	d="
M248.995209,177.979294 
	C248.064407,179.056915 247.345734,180.551483 246.170807,181.149261 
	C230.017914,189.367508 214.088150,198.114502 197.511826,205.381866 
	C184.131058,211.248230 170.089737,215.746094 156.086090,220.012924 
	C143.216263,223.934280 130.026688,226.823959 116.937973,230.003357 
	C107.164322,232.377457 97.321304,234.464996 87.524200,236.744675 
	C86.117561,237.071991 84.795372,237.762207 83.238548,238.359497 
	C88.320244,244.220627 93.125832,249.763290 97.965607,255.652985 
	C97.999786,256.000000 97.996826,256.003571 97.664307,256.051758 
	C96.874466,256.783417 96.417145,257.466858 95.959808,258.150299 
	C94.073318,256.295074 92.186829,254.439835 90.128601,251.940125 
	C84.715683,243.297409 84.360924,243.101364 78.072540,244.727905 
	C77.320808,244.741302 76.569069,244.754715 75.302048,244.334656 
	C69.868568,243.563522 64.950378,243.225861 60.032185,242.888199 
	C59.291645,242.849411 58.551109,242.810623 57.347660,242.357971 
	C54.477180,240.143921 52.059822,238.410446 49.038425,240.792450 
	C48.602608,240.786514 48.166794,240.780594 47.296562,240.377548 
	C45.196838,239.362183 43.435123,238.911530 41.916588,238.038071 
	C41.357536,237.716492 41.372593,236.396820 41.125786,235.532410 
	C43.146358,235.389297 45.166927,235.246185 47.937302,235.407074 
	C52.319775,235.784561 55.993687,236.224960 59.572872,235.822632 
	C62.794952,235.460464 65.913162,234.174225 69.077194,233.295593 
	C69.816795,233.220215 70.556404,233.144821 71.967773,233.376709 
	C75.620300,233.744553 78.697746,234.317947 81.565147,233.777328 
	C94.309669,231.374451 107.033508,228.828674 119.688339,225.993195 
	C130.908829,223.479065 142.064941,220.650116 153.167221,217.655212 
	C155.980194,216.896408 158.479721,214.975647 161.123260,213.588806 
	C161.541229,213.447708 161.959198,213.306610 162.916809,213.395416 
	C164.977386,212.812653 166.498306,212.000015 168.019241,211.187378 
	C171.281784,210.066620 174.544327,208.945862 178.603577,207.869431 
	C180.227585,207.894394 181.158676,208.119308 181.866486,207.818619 
	C190.881393,203.988937 199.882202,200.124191 208.834412,196.150848 
	C210.060684,195.606583 211.004608,194.426132 212.079254,193.540222 
	C219.400131,189.726303 226.721008,185.912399 234.677597,182.007156 
	C235.898514,181.440109 236.483719,180.964401 237.068909,180.488708 
	C237.814316,180.015961 238.559708,179.543213 239.988770,179.017456 
	C241.782852,178.632370 242.893265,178.300293 244.208801,178.220215 
	C245.941025,178.307907 247.468109,178.143600 248.995209,177.979294 
z"/>
<path fill="#5EBDF6" opacity="1.000000" stroke="none" 
	d="
M155.023956,283.971405 
	C157.698456,285.028870 160.372971,286.086334 164.003418,287.521790 
	C164.003418,284.770081 164.003311,283.008942 164.003448,281.247772 
	C164.004593,267.430695 163.994003,253.613586 164.013184,239.796524 
	C164.020081,234.829803 168.045685,231.986038 174.637512,231.975693 
	C179.807510,231.967590 179.943390,235.547058 179.964737,239.164459 
	C180.023209,249.069244 179.745865,258.983337 180.096573,268.876190 
	C180.293701,274.437531 181.470734,279.964111 182.339676,286.511139 
	C184.518982,285.198517 186.512466,284.600983 187.572098,283.263550 
	C195.552063,273.191498 204.616928,263.867462 209.738358,251.764694 
	C210.142212,250.810318 211.373032,250.221008 212.171997,249.414917 
	C213.207733,248.369919 214.980057,247.339325 215.070038,246.195175 
	C215.483139,240.941528 218.572021,236.009811 216.773666,230.465210 
	C215.998718,228.075958 214.831207,227.014786 212.368622,226.895508 
	C213.875870,225.802719 215.388321,225.255127 216.900787,224.707550 
	C217.749893,224.580505 218.598999,224.453445 220.100006,224.167542 
	C221.506363,223.987930 222.260818,223.967194 223.015274,223.946457 
	C223.038513,224.725662 223.061752,225.504868 222.915527,226.950409 
	C222.529587,228.745819 222.313126,229.874924 222.096649,231.004013 
	C221.721558,232.102112 221.346451,233.200226 220.743210,234.870453 
	C220.339783,236.294342 220.164520,237.146118 219.989227,237.997879 
	C215.067963,248.318542 210.799927,259.023163 205.027435,268.843475 
	C200.032303,277.341339 192.700668,284.118530 183.265717,288.033813 
	C178.197632,290.136932 176.511642,289.059845 176.502548,283.641693 
	C176.474991,267.199463 176.492569,250.757141 176.492569,233.951706 
	C173.931671,234.323105 171.080734,234.125076 168.929199,235.256744 
	C167.414688,236.053345 166.025589,238.643234 165.994034,240.457001 
	C165.753418,254.283737 165.861298,268.116516 165.859268,281.947418 
	C165.858109,289.841370 164.792130,290.535065 157.746964,287.090881 
	C156.418182,286.441284 155.225357,285.513641 154.156494,284.363464 
	C154.570114,283.998901 154.797043,283.985168 155.023956,283.971405 
z"/>
<path fill="#4CB9FA" opacity="1.000000" stroke="none" 
	d="
M181.076080,74.141190 
	C180.106171,76.232277 179.136261,78.323372 177.620422,80.768059 
	C176.794647,81.888275 176.514786,82.654892 176.234924,83.421516 
	C175.172363,85.396484 174.109802,87.371452 172.574417,89.723816 
	C171.771103,90.802818 171.440628,91.504440 171.110153,92.206055 
	C170.110596,93.952332 169.111038,95.698608 167.580414,97.774673 
	C166.737442,98.806892 166.425522,99.509331 166.113617,100.211761 
	C157.583984,111.342049 149.586395,122.939240 140.357269,133.455643 
	C132.902802,141.949860 123.963516,149.140991 115.209564,156.654633 
	C113.412697,155.575577 112.089188,154.752075 110.765678,153.928558 
	C113.446320,149.628372 116.126961,145.328186 119.456085,141.071625 
	C120.958138,142.392731 121.811714,143.670227 123.286560,145.877533 
	C129.180267,139.224380 134.593246,133.113907 140.308716,126.854927 
	C143.735657,122.645592 146.567642,118.313263 150.038940,114.574493 
	C160.769318,103.017334 168.319550,89.404083 175.499207,75.585365 
	C176.910034,72.869926 178.177734,71.661942 181.027344,72.382492 
	C181.037109,73.203278 181.056595,73.672234 181.076080,74.141190 
z"/>
<path fill="#3FB4FC" opacity="1.000000" stroke="none" 
	d="
M187.996613,113.000778 
	C187.996613,113.000778 187.871475,112.655029 187.871277,112.113663 
	C187.206009,111.068474 186.540939,110.564659 185.875870,110.060837 
	C179.725067,108.377846 173.574265,106.694847 167.005936,104.897606 
	C170.362457,100.348236 173.609238,95.947586 177.534790,91.295822 
	C182.803665,91.374321 187.426041,91.466995 191.976761,92.086174 
	C199.826279,93.154213 202.887863,98.806831 199.860077,106.062859 
	C199.249786,107.525337 198.808823,109.058456 198.289795,110.559006 
	C197.920166,111.217834 197.550537,111.876663 196.633957,112.745209 
	C194.971878,112.782166 192.952652,112.277359 192.876022,112.485985 
	C191.529984,116.151001 189.603149,113.021797 187.996613,113.000778 
z"/>
<path fill="#50B9F9" opacity="1.000000" stroke="none" 
	d="
M209.965073,222.692886 
	C210.663773,221.172989 210.953064,218.886246 212.128220,218.258850 
	C219.246552,214.458572 226.410950,210.647064 233.886200,207.654175 
	C237.609390,206.163467 242.011154,206.161041 246.131683,205.913345 
	C254.217636,205.427307 262.336365,205.419388 270.403168,204.750610 
	C271.715363,204.641830 273.414001,202.339676 273.918060,200.732635 
	C275.047577,197.131805 275.264679,193.243851 276.405060,189.647781 
	C276.960815,187.895187 278.753479,186.534805 280.348846,184.979279 
	C279.789032,192.296082 278.928802,199.639114 277.914734,206.960846 
	C277.487213,210.047714 275.288818,210.719040 272.444183,210.688950 
	C264.984589,210.610046 257.496613,211.139572 250.069077,210.662216 
	C241.671906,210.122513 234.096436,211.962875 226.792480,215.949219 
	C222.596542,218.239258 218.105957,219.989456 213.060883,222.090088 
	C211.570862,222.362610 210.767960,222.527740 209.965073,222.692886 
z"/>
<path fill="#3CB5FD" opacity="1.000000" stroke="none" 
	d="
M165.964966,22.924332 
	C166.303146,22.562185 166.641342,22.200039 167.650238,21.835594 
	C171.261581,21.222137 174.202499,20.139322 177.142731,20.141108 
	C179.744385,20.142687 182.345306,21.351635 184.946548,22.027540 
	C185.916229,23.103870 186.885910,24.180202 187.929810,26.026743 
	C188.708374,32.884663 188.186172,38.160110 181.739471,41.527222 
	C177.617981,43.679859 172.267883,43.177795 168.633896,40.287594 
	C163.576721,36.265495 163.832947,31.054876 163.828079,25.672314 
	C163.828079,25.672314 163.905258,25.311003 164.339447,25.120735 
	C165.170761,24.261755 165.567856,23.593042 165.964966,22.924332 
z"/>
<path fill="#3FB4FC" opacity="1.000000" stroke="none" 
	d="
M140.006226,127.003448 
	C134.593246,133.113907 129.180267,139.224380 123.286560,145.877533 
	C121.811714,143.670227 120.958138,142.392731 119.760529,140.939941 
	C120.131844,139.318054 120.847214,137.871475 122.191788,136.152283 
	C123.145012,135.072281 123.469032,134.264893 123.793068,133.457504 
	C124.420586,132.128021 125.048103,130.798538 126.232162,129.181564 
	C133.094803,119.474640 138.425369,109.556366 141.991959,98.762291 
	C142.596161,96.933739 142.800201,94.972961 143.189102,93.073273 
	C144.022003,90.609612 144.854889,88.145950 146.159393,85.166695 
	C148.418137,78.767906 150.205231,72.884712 152.392014,67.002640 
	C156.625641,66.880852 156.217911,68.985680 155.283768,71.556137 
	C151.927811,80.790771 148.955338,90.179138 145.241196,99.265480 
	C140.909149,109.863487 135.940552,120.200935 131.296692,130.672974 
	C131.075577,131.171600 131.324219,131.878540 131.349792,132.400696 
	C134.359100,130.524399 137.182663,128.763931 140.006226,127.003448 
z"/>
<path fill="#40B4FA" opacity="1.000000" stroke="none" 
	d="
M128.896347,66.444885 
	C128.469727,66.565086 128.043121,66.685287 127.047501,66.571411 
	C124.651726,66.886589 122.824951,67.435829 120.621933,67.983711 
	C118.777206,66.911919 117.308739,65.841492 115.840271,64.771065 
	C117.274864,63.215347 118.709457,61.659630 120.802704,59.989479 
	C128.583344,55.986824 135.831863,53.053684 144.326965,53.816658 
	C149.473969,54.278923 154.735535,53.465725 159.945633,53.225563 
	C160.382690,53.225800 160.819763,53.226040 161.652191,53.588478 
	C162.724426,54.591400 163.401276,55.232124 163.838409,56.195442 
	C158.908340,56.886433 153.505722,58.899284 149.690674,57.246841 
	C143.611343,54.613659 139.598999,58.343441 134.650833,59.234760 
	C136.777725,60.004456 138.945541,59.636803 140.924698,60.091080 
	C143.854752,60.763618 147.936401,59.457130 148.526703,64.045593 
	C143.491302,64.043411 138.906769,63.809826 134.363998,64.144005 
	C132.495148,64.281479 130.716187,65.641151 128.896347,66.444885 
z"/>
<path fill="#50B9F9" opacity="1.000000" stroke="none" 
	d="
M281.452332,183.165466 
	C279.923157,175.940186 286.281036,173.320282 290.245270,169.624390 
	C299.889801,160.632721 308.407288,150.963089 314.013794,138.875000 
	C315.190460,136.337997 317.506226,134.329315 319.703064,132.438599 
	C320.169922,133.063339 320.230835,133.326675 320.291748,133.589996 
	C320.139038,134.522507 319.986298,135.455002 319.348572,136.799896 
	C318.645020,137.980392 318.426514,138.748520 318.207977,139.516632 
	C318.137634,139.860809 318.067322,140.204971 317.522644,140.856110 
	C316.771545,141.955322 316.494843,142.747574 316.218140,143.539825 
	C316.144775,143.880157 316.071411,144.220490 315.522522,144.860077 
	C314.763580,145.937332 314.480103,146.715332 314.196655,147.493332 
	C307.630463,159.787720 298.017609,169.452087 287.529175,178.355453 
	C285.643097,179.956482 283.694763,181.484131 281.452332,183.165466 
z"/>
<path fill="#4DBAFB" opacity="1.000000" stroke="none" 
	d="
M155.013550,283.591370 
	C154.797043,283.985168 154.570114,283.998901 154.001633,284.047272 
	C143.376389,279.229614 138.617844,269.485596 133.039978,260.539215 
	C130.857346,257.038483 129.198746,253.182297 127.562271,249.375870 
	C124.431580,242.093903 124.509331,242.062210 116.560593,243.274887 
	C115.771019,243.395340 114.976105,243.480835 113.688972,243.646057 
	C114.451126,246.307144 115.158447,248.776794 115.522766,251.561081 
	C114.123444,250.249252 113.067123,248.622803 112.010796,246.996338 
	C110.964645,242.056091 115.266670,240.193069 118.088882,239.369446 
	C121.569382,238.353729 125.440140,239.944855 127.462341,244.012497 
	C128.637436,246.376175 130.432831,248.430267 131.934128,250.633850 
	C132.300308,251.171310 132.739685,251.709000 132.922394,252.313950 
	C136.257599,263.356873 145.220856,270.094788 152.498764,278.142609 
	C153.714874,279.487366 154.187149,281.504761 155.013550,283.591370 
z"/>
<path fill="#5DBEF8" opacity="1.000000" stroke="none" 
	d="
M320.599457,133.360779 
	C320.230835,133.326675 320.169922,133.063339 320.052673,132.398483 
	C320.003235,125.841438 320.425446,119.644554 319.818268,113.550224 
	C319.565582,111.014046 317.400391,108.457565 315.603088,106.335182 
	C312.859711,103.095535 309.874573,99.987663 306.596283,97.308075 
	C305.189728,96.158386 302.789764,96.224106 300.492218,95.650505 
	C300.172058,98.104828 299.962341,99.712700 299.517883,101.612152 
	C296.716736,96.283264 294.150299,90.662788 291.455414,84.761024 
	C303.960327,89.238022 314.573029,95.768585 320.260925,108.038078 
	C324.021820,116.150711 324.261414,124.674896 320.599457,133.360779 
z"/>
<path fill="#3FB4FC" opacity="1.000000" stroke="none" 
	d="
M295.965515,128.992249 
	C295.501648,131.339935 295.702942,134.139374 294.465363,135.961594 
	C286.729370,147.352264 277.147003,157.114426 266.420532,165.686676 
	C261.410645,169.690430 255.899185,173.066620 250.300079,176.487198 
	C249.989456,175.498093 249.993820,174.749039 250.103760,173.765747 
	C250.506851,172.936722 250.804382,172.341949 251.101898,171.747177 
	C251.814117,171.230011 252.526352,170.712845 253.794495,170.015747 
	C254.574356,169.590897 254.798294,169.346008 255.022247,169.101105 
	C255.022232,169.101105 255.028168,169.015213 255.267441,168.946686 
	C255.755356,168.724121 255.935135,168.511810 256.046082,168.241211 
	C257.040924,167.493896 258.035767,166.746582 259.715973,165.949219 
	C262.272888,164.278946 264.144470,162.658722 266.016022,161.038483 
	C267.745911,159.422623 269.475769,157.806763 271.854797,156.053619 
	C275.650269,152.570343 278.796570,149.224335 281.942871,145.878342 
	C283.935944,143.422104 285.929016,140.965851 288.508118,138.217529 
	C289.964203,136.441620 290.834229,134.957825 291.704285,133.474014 
	C292.168732,132.518372 292.633148,131.562729 293.544098,130.287796 
	C294.648926,129.643082 295.307220,129.317673 295.965515,128.992249 
z"/>
<path fill="#5DBEF8" opacity="1.000000" stroke="none" 
	d="
M230.290390,271.760559 
	C231.019302,269.604523 231.527130,266.656799 233.261642,265.394073 
	C243.895844,257.652252 252.860123,248.479919 259.987244,237.381714 
	C261.640259,234.807648 264.738190,233.161453 267.499573,231.026398 
	C262.108978,243.328995 253.624664,253.589096 243.396286,262.408020 
	C239.416946,265.839020 234.905396,268.652771 230.290390,271.760559 
z"/>
<path fill="#59BDF7" opacity="1.000000" stroke="none" 
	d="
M277.074036,58.327515 
	C279.234528,57.364697 281.448975,56.739059 283.962250,56.028988 
	C283.962250,54.814877 284.062622,53.506409 283.945190,52.217793 
	C283.380066,46.017075 283.359222,46.016876 289.880280,46.000050 
	C292.399231,45.993549 294.918213,45.998985 297.437164,45.998985 
	C297.462860,45.569298 297.488556,45.139614 297.514221,44.709927 
	C296.245544,44.309616 294.976868,43.909306 293.465210,43.432327 
	C293.809265,42.574471 294.145844,41.735325 294.447296,40.983646 
	C292.634186,39.598259 290.859314,38.242085 288.998779,36.567734 
	C294.918884,39.197723 300.924622,42.145889 306.930389,45.094055 
	C306.817810,45.607758 306.705231,46.121460 306.592682,46.635162 
	C301.601501,46.991978 296.614868,47.445072 291.618011,47.681549 
	C285.178894,47.986290 284.825989,48.241764 285.864288,54.694160 
	C286.693115,59.844757 287.770416,64.955360 288.737427,70.083717 
	C288.324036,70.337402 287.910675,70.591080 287.497284,70.844765 
	C284.040863,66.784744 280.584412,62.724720 277.074036,58.327515 
z"/>
<path fill="#5DBEF8" opacity="1.000000" stroke="none" 
	d="
M163.520370,25.843842 
	C163.832947,31.054876 163.576721,36.265495 168.633896,40.287594 
	C172.267883,43.177795 177.617981,43.679859 181.739471,41.527222 
	C188.186172,38.160110 188.708374,32.884663 188.039581,26.324553 
	C191.800247,30.579399 191.581711,36.623680 187.504410,41.636139 
	C182.773346,47.452301 175.613602,49.121197 169.368332,45.863575 
	C161.163544,41.583843 158.669510,33.542133 163.520370,25.843842 
z"/>
<path fill="#6CC1F5" opacity="1.000000" stroke="none" 
	d="
M160.762024,213.466980 
	C158.479721,214.975647 155.980194,216.896408 153.167221,217.655212 
	C142.064941,220.650116 130.908829,223.479065 119.688339,225.993195 
	C107.033508,228.828674 94.309669,231.374451 81.565147,233.777328 
	C78.697746,234.317947 75.620300,233.744553 72.338150,233.417282 
	C75.687958,232.285126 79.295654,231.029526 82.997330,230.616791 
	C109.433731,227.669037 135.058945,221.158066 160.762024,213.466980 
z"/>
<path fill="#5DBEF8" opacity="1.000000" stroke="none" 
	d="
M268.612671,229.354370 
	C268.100891,227.926971 267.877594,226.306473 267.571716,224.086838 
	C257.854462,224.086838 248.253204,224.005661 238.658600,224.221069 
	C237.766968,224.241089 236.527893,226.004791 236.109406,227.191360 
	C232.323059,237.927399 228.735489,248.733566 224.945663,259.468323 
	C224.375412,261.083557 223.061447,262.436249 221.775269,263.993408 
	C224.905060,255.016144 228.435287,245.986481 231.751999,236.879074 
	C232.931610,233.639969 234.036728,230.256516 234.376999,226.858932 
	C234.793594,222.699341 237.061386,222.230377 240.458878,222.288101 
	C248.745667,222.428879 257.037598,222.259811 265.324768,222.388687 
	C267.350433,222.420181 269.365784,223.117767 271.385864,223.509064 
	C270.557617,225.393143 269.729401,227.277206 268.612671,229.354370 
z"/>
<path fill="#4DBAFB" opacity="1.000000" stroke="none" 
	d="
M103.001038,260.006104 
	C103.442497,260.006805 103.883942,260.007538 104.696625,260.354919 
	C108.043289,262.802856 111.018707,264.904083 113.994125,267.005280 
	C113.994133,267.005280 114.000000,267.000000 114.040749,267.372314 
	C116.601555,273.336975 120.846634,270.372772 124.596596,269.864502 
	C126.941269,273.284698 129.285950,276.704926 131.630630,280.125122 
	C131.136200,280.556793 130.641785,280.988464 130.147369,281.420135 
	C123.970795,277.968353 117.794220,274.516541 111.271500,270.522766 
	C109.883766,269.355011 108.842186,268.729218 107.800598,268.103424 
	C106.385223,267.112061 104.969849,266.120728 103.264587,264.632263 
	C102.648659,263.442810 102.322624,262.750519 102.100380,261.791321 
	C102.469788,261.018311 102.735413,260.512207 103.001038,260.006104 
z"/>
<path fill="#3FB4FC" opacity="1.000000" stroke="none" 
	d="
M124.552582,269.631989 
	C120.846634,270.372772 116.601555,273.336975 114.038116,267.375488 
	C114.384399,265.792419 115.370644,264.389526 115.056671,263.398499 
	C113.919212,259.808197 112.103889,256.426971 111.045586,252.819794 
	C110.569389,251.196671 111.275864,249.226562 111.728256,247.205109 
	C113.067123,248.622803 114.123444,250.249252 115.509140,251.942963 
	C115.991028,252.317184 116.143555,252.624176 116.195000,253.611206 
	C118.802422,259.202454 121.510925,264.113617 124.219429,269.024780 
	C124.219429,269.024780 124.508560,269.399475 124.552582,269.631989 
z"/>
<path fill="#40B4FA" opacity="1.000000" stroke="none" 
	d="
M227.163757,61.511772 
	C227.873825,61.383770 228.583893,61.255768 229.863281,61.384388 
	C231.413513,62.129921 232.394409,62.618824 233.375320,63.107727 
	C233.220322,63.514469 233.065308,63.921207 232.955444,64.664894 
	C233.000580,65.001846 232.973511,64.957367 232.973511,64.957367 
	C232.235809,65.248604 231.498108,65.539848 230.082733,65.949699 
	C226.228638,67.499199 223.052216,68.930092 219.875809,70.360977 
	C219.452911,70.504311 219.030029,70.647644 217.978180,70.538551 
	C215.237549,70.207901 213.125885,70.129669 210.957932,69.698334 
	C210.277237,67.875229 209.652817,66.405212 209.459045,64.951904 
	C215.647720,63.816334 221.405731,62.664051 227.163757,61.511772 
z"/>
<path fill="#72C6F5" opacity="1.000000" stroke="none" 
	d="
M129.190521,66.663376 
	C130.716187,65.641151 132.495148,64.281479 134.363998,64.144005 
	C138.906769,63.809826 143.491302,64.043411 148.805450,64.173462 
	C150.365372,65.199608 151.178864,66.100571 151.992340,67.001526 
	C150.205231,72.884712 148.418137,78.767906 146.305725,84.827866 
	C147.128723,79.210808 148.277039,73.416969 149.546494,67.011963 
	C143.194733,63.868446 136.245941,67.683754 129.190521,66.663376 
z"/>
<path fill="#72C6F5" opacity="1.000000" stroke="none" 
	d="
M159.669617,52.952770 
	C154.735535,53.465725 149.473969,54.278923 144.326965,53.816658 
	C135.831863,53.053684 128.583344,55.986824 121.079422,59.831661 
	C126.406807,53.311932 134.317368,51.856171 142.181076,51.308399 
	C147.859177,50.912865 153.651947,52.163521 159.669617,52.952770 
z"/>
<path fill="#72C6F5" opacity="1.000000" stroke="none" 
	d="
M251.705048,38.176117 
	C249.433136,40.359306 246.799683,42.542835 244.166229,44.726368 
	C244.246933,45.162640 244.327652,45.598911 244.408371,46.035183 
	C247.771286,46.035183 251.134277,46.020771 254.497101,46.038136 
	C261.829407,46.075996 262.670074,47.138786 260.711426,54.572121 
	C260.142426,55.018246 259.833008,55.005409 259.525757,54.939873 
	C259.235687,54.579502 258.616882,54.058392 258.703094,53.882015 
	C261.620544,47.915169 257.901215,47.676125 253.570587,47.776531 
	C251.092072,47.833996 248.602066,47.711281 246.127319,47.531151 
	C243.369766,47.330441 240.623657,46.972496 237.372665,45.503395 
	C242.029617,43.061081 246.686554,40.618767 251.705048,38.176117 
z"/>
<path fill="#6CC1F5" opacity="1.000000" stroke="none" 
	d="
M211.014206,70.051430 
	C213.125885,70.129669 215.237549,70.207901 217.640106,70.528214 
	C209.423508,75.131042 200.494339,73.004234 191.673615,72.455002 
	C189.033890,72.290627 186.403107,71.982803 183.261444,71.741264 
	C182.754684,71.741821 182.656998,71.640381 182.870331,71.305336 
	C188.721832,70.976860 194.359985,70.983429 200.414932,71.000908 
	C202.221359,71.007469 203.610977,71.003128 205.391968,71.004944 
	C207.526962,70.691208 209.270584,70.371323 211.014206,70.051430 
z"/>
<path fill="#6CC1F5" opacity="1.000000" stroke="none" 
	d="
M219.351898,267.702942 
	C219.248795,269.050385 218.860916,270.578308 218.243195,273.011688 
	C220.391159,273.406952 222.578827,273.809540 225.146210,274.321991 
	C220.749908,277.298523 215.973877,280.165161 211.197845,283.031830 
	C210.698883,282.583282 210.199936,282.134735 209.700974,281.686157 
	C212.823029,277.085266 215.945099,272.484344 219.351898,267.702942 
z"/>
<path fill="#59BDF7" opacity="1.000000" stroke="none" 
	d="
M198.599625,110.381332 
	C198.808823,109.058456 199.249786,107.525337 199.860077,106.062859 
	C202.887863,98.806831 199.826279,93.154213 191.976761,92.086174 
	C187.426041,91.466995 182.803665,91.374321 177.794022,91.058464 
	C178.481689,90.444969 179.639084,89.209602 180.687378,89.296120 
	C185.138641,89.663460 189.683044,89.963066 193.963165,91.131149 
	C204.070862,93.889618 205.942505,101.579948 198.599625,110.381332 
z"/>
<path fill="#59BDF7" opacity="1.000000" stroke="none" 
	d="
M259.371521,55.270927 
	C259.833008,55.005409 260.142426,55.018246 260.686951,54.962044 
	C263.595764,58.278881 266.361694,56.776955 269.299316,55.279957 
	C270.676910,54.577942 272.365631,54.486488 273.998291,54.437599 
	C269.933258,58.404613 265.783264,62.052353 260.972107,65.786987 
	C259.923462,64.279503 259.412994,62.702312 259.186981,61.085358 
	C259.002502,59.765167 259.157745,58.397488 259.162384,57.050861 
	C259.180695,56.567902 259.199005,56.084942 259.371521,55.270927 
z"/>
<path fill="#5EBDF6" opacity="1.000000" stroke="none" 
	d="
M290.502563,30.216450 
	C289.557617,27.561625 288.916962,24.752708 287.883575,21.813112 
	C291.498749,19.689690 295.506622,17.696947 299.514465,15.704206 
	C299.867706,16.169853 300.220947,16.635502 300.574188,17.101151 
	C297.318390,21.421553 294.062592,25.741955 290.502563,30.216450 
z"/>
<path fill="#4CB9FA" opacity="1.000000" stroke="none" 
	d="
M142.909393,93.282898 
	C142.800201,94.972961 142.596161,96.933739 141.991959,98.762291 
	C138.425369,109.556366 133.094803,119.474640 126.453896,128.950806 
	C131.622604,117.169197 137.126144,105.330864 142.909393,93.282898 
z"/>
<path fill="#59BDF7" opacity="1.000000" stroke="none" 
	d="
M256.803040,21.775852 
	C256.195129,23.717190 255.383530,25.428602 254.480713,27.332325 
	C255.220352,28.793182 256.090149,30.511126 256.996918,32.575787 
	C255.359985,31.011417 253.547806,29.202330 252.045013,27.165033 
	C249.854492,24.195389 247.886505,21.061598 246.173538,16.779329 
	C249.648804,18.368195 253.124069,19.957060 256.803040,21.775852 
z"/>
<path fill="#5EBDF6" opacity="1.000000" stroke="none" 
	d="
M211.732925,193.465912 
	C211.004608,194.426132 210.060684,195.606583 208.834412,196.150848 
	C199.882202,200.124191 190.881393,203.988937 181.866486,207.818619 
	C181.158676,208.119308 180.227585,207.894394 178.967590,207.833557 
	C186.471634,204.253998 194.404343,200.745422 202.347183,197.259964 
	C205.348251,195.943024 208.372772,194.679459 211.732925,193.465912 
z"/>
<path fill="#E3E3E3" opacity="1.000000" stroke="none" 
	d="
M179.000702,197.368103 
	C178.960144,198.430862 178.919418,199.076065 178.878677,199.721252 
	C178.704849,199.718948 178.531006,199.716644 178.357178,199.714325 
	C178.357178,178.876968 178.357178,158.039612 178.357178,137.202255 
	C178.571625,137.199234 178.786087,137.196198 179.000534,137.193176 
	C179.000534,157.112289 179.000534,177.031418 179.000702,197.368103 
z"/>
<path fill="#72C6F5" opacity="1.000000" stroke="none" 
	d="
M164.078125,55.872849 
	C163.401276,55.232124 162.724426,54.591400 161.966888,53.685692 
	C165.277390,53.923183 168.690201,54.312103 172.054947,54.953342 
	C177.866760,56.060936 183.648697,57.325233 189.732025,58.968483 
	C190.020874,59.413185 190.025360,59.896622 189.607941,59.925140 
	C186.793365,59.627674 184.396225,59.301685 181.638000,58.812061 
	C176.852234,57.760468 172.427521,56.872513 167.608932,55.973518 
	C166.169403,55.932606 165.123764,55.902729 164.078125,55.872849 
z"/>
<path fill="#80CDF7" opacity="1.000000" stroke="none" 
	d="
M226.727310,61.357166 
	C221.405731,62.664051 215.647720,63.816334 209.409561,64.636734 
	C208.286423,63.875008 207.643433,63.445156 206.662796,62.993065 
	C205.507278,62.435459 204.689407,61.900101 203.871521,61.364738 
	C211.344635,61.310680 218.817749,61.256622 226.727310,61.357166 
z"/>
<path fill="#6CC1F5" opacity="1.000000" stroke="none" 
	d="
M40.715298,235.373047 
	C41.372593,236.396820 41.357536,237.716492 41.916588,238.038071 
	C43.435123,238.911530 45.196838,239.362183 46.980553,240.290680 
	C41.049236,240.476105 35.333477,239.252457 30.145233,236.293152 
	C30.236034,235.705765 30.326834,235.118378 30.417635,234.531006 
	C33.713360,234.758560 37.009083,234.986130 40.715298,235.373047 
z"/>
<path fill="#5DBEF8" opacity="1.000000" stroke="none" 
	d="
M295.983185,128.609772 
	C295.307220,129.317673 294.648926,129.643082 293.724060,130.022308 
	C294.563416,127.178635 296.086182,124.364388 296.685059,121.365639 
	C297.797424,115.795349 298.370789,110.117409 299.365723,104.216217 
	C299.921692,107.155663 301.029877,110.501259 300.470032,113.539482 
	C299.548523,118.540138 297.547058,123.341774 295.983185,128.609772 
z"/>
<path fill="#50B9F9" opacity="1.000000" stroke="none" 
	d="
M110.468903,154.083893 
	C112.089188,154.752075 113.412697,155.575577 114.882111,156.730957 
	C111.348236,159.854614 107.668457,162.646393 103.988678,165.438171 
	C103.576965,165.052399 103.165253,164.666641 102.753532,164.280884 
	C105.226395,160.933670 107.699257,157.586441 110.468903,154.083893 
z"/>
<path fill="#6CC1F5" opacity="1.000000" stroke="none" 
	d="
M115.560684,64.967804 
	C117.308739,65.841492 118.777206,66.911919 120.616959,68.212997 
	C120.988243,68.443657 120.973419,68.901764 120.973419,68.901764 
	C117.603180,71.028473 114.232941,73.155190 110.862701,75.281906 
	C110.398445,74.874992 109.934189,74.468079 109.469933,74.061172 
	C111.406982,71.095627 113.344032,68.130089 115.560684,64.967804 
z"/>
<path fill="#59BDF7" opacity="1.000000" stroke="none" 
	d="
M187.935791,113.413414 
	C189.603149,113.021797 191.529984,116.151001 192.876022,112.485985 
	C192.952652,112.277359 194.971878,112.782166 196.434021,112.954033 
	C193.913147,116.334015 191.045227,119.714897 188.177307,123.095772 
	C187.795700,122.955849 187.414078,122.815926 187.032471,122.676010 
	C187.313293,119.726021 187.594131,116.776039 187.935791,113.413414 
z"/>
<path fill="#E3E3E3" opacity="1.000000" stroke="none" 
	d="
M211.687057,183.735077 
	C211.440613,168.099182 211.440613,152.183578 211.440613,136.267990 
	C211.604904,136.264297 211.769211,136.260605 211.933502,136.256912 
	C211.933502,151.989731 211.933502,167.722549 211.687057,183.735077 
z"/>
<path fill="#6CC1F5" opacity="1.000000" stroke="none" 
	d="
M68.736565,233.156403 
	C65.913162,234.174225 62.794952,235.460464 59.572872,235.822632 
	C55.993687,236.224960 52.319775,235.784561 48.373268,235.456467 
	C54.838268,234.473633 61.617104,233.745407 68.736565,233.156403 
z"/>
<path fill="#40B4FA" opacity="1.000000" stroke="none" 
	d="
M203.562622,61.276833 
	C204.689407,61.900101 205.507278,62.435459 206.597412,63.352615 
	C201.815384,67.096443 197.339661,66.437515 195.416443,61.995224 
	C197.877960,61.722141 199.926041,61.441208 201.974106,61.160278 
	C202.400635,61.169827 202.827179,61.179379 203.562622,61.276833 
z"/>
<path fill="#F2FAFF" opacity="1.000000" stroke="none" 
	d="
M259.318726,122.317596 
	C259.561798,133.932053 259.561798,145.819504 259.561798,157.706940 
	C259.399750,157.711563 259.237701,157.716187 259.075653,157.720810 
	C259.075653,146.010742 259.075653,134.300659 259.318726,122.317596 
z"/>
<path fill="#F2FAFF" opacity="1.000000" stroke="none" 
	d="
M209.665527,222.894272 
	C210.767960,222.527740 211.570862,222.362610 212.695709,222.170303 
	C214.151688,222.859879 215.285690,223.576645 216.660248,224.500473 
	C215.388321,225.255127 213.875870,225.802719 212.178360,226.638245 
	C209.922409,227.205917 207.851501,227.485657 205.241623,227.559204 
	C204.492569,226.588928 204.282486,225.824875 204.072418,225.060822 
	C205.836945,224.405777 207.601471,223.750717 209.665527,222.894272 
z"/>
<path fill="#72C6F5" opacity="1.000000" stroke="none" 
	d="
M258.903809,57.322514 
	C259.157745,58.397488 259.002502,59.765167 259.186981,61.085358 
	C259.412994,62.702312 259.923462,64.279503 260.687042,65.953964 
	C260.005920,67.714752 258.948669,69.395462 257.891449,71.076172 
	C257.319214,70.800758 256.746979,70.525337 256.174744,70.249924 
	C256.998230,66.031334 257.821716,61.812752 258.903809,57.322514 
z"/>
<path fill="#E3E3E3" opacity="1.000000" stroke="none" 
	d="
M117.026001,188.032196 
	C117.355263,187.810135 117.930939,187.965912 117.931572,188.123978 
	C117.973877,198.701462 117.969864,209.279129 117.004044,219.862518 
	C117.004044,209.378708 117.004044,198.894913 117.026001,188.032196 
z"/>
<path fill="#E3E3E3" opacity="1.000000" stroke="none" 
	d="
M85.021530,214.863083 
	C85.021545,217.474442 85.021545,219.609085 85.021545,221.743744 
	C84.673889,221.754013 84.326241,221.764282 83.978584,221.774567 
	C83.978584,216.549866 83.978584,211.325165 83.978584,206.100464 
	C83.978584,200.810471 83.978584,195.520493 83.978584,190.230499 
	C84.326233,190.225174 84.673874,190.219849 85.021523,190.214523 
	C85.021523,198.271805 85.021523,206.329102 85.021530,214.863083 
z"/>
<path fill="#5DBEF8" opacity="1.000000" stroke="none" 
	d="
M184.811340,21.703783 
	C182.345306,21.351635 179.744385,20.142687 177.142731,20.141108 
	C174.202499,20.139322 171.261581,21.222137 167.895477,21.767200 
	C172.284210,16.915218 178.586838,16.797606 184.811340,21.703783 
z"/>
<path fill="#6CC1F5" opacity="1.000000" stroke="none" 
	d="
M60.319809,243.147873 
	C64.950378,243.225861 69.868568,243.563522 74.937828,244.234680 
	C70.261742,244.181320 65.434586,243.794434 60.319809,243.147873 
z"/>
<path fill="#6CC1F5" opacity="1.000000" stroke="none" 
	d="
M78.327095,245.000153 
	C84.360924,243.101364 84.715683,243.297409 89.976288,251.648865 
	C89.063652,251.409653 87.689400,251.033356 87.275871,250.187424 
	C85.460892,246.474564 82.332855,245.394318 78.327095,245.000153 
z"/>
<path fill="#4DBAFB" opacity="1.000000" stroke="none" 
	d="
M124.180389,268.647736 
	C121.510925,264.113617 118.802422,259.202454 116.157974,253.869888 
	C118.861809,258.389221 121.501579,263.329956 124.180389,268.647736 
z"/>
<path fill="#E3E3E3" opacity="1.000000" stroke="none" 
	d="
M112.368805,184.002014 
	C113.429710,184.041763 114.073013,184.081802 114.716324,184.121857 
	C114.716164,184.294800 114.715996,184.467758 114.715828,184.640701 
	C105.550865,184.640701 96.385895,184.640701 87.220924,184.640701 
	C87.213905,184.427902 87.206894,184.215088 87.199875,184.002289 
	C95.450325,184.002289 103.700768,184.002289 112.368805,184.002014 
z"/>
<path fill="#59BDF7" opacity="1.000000" stroke="none" 
	d="
M281.620605,145.976440 
	C278.796570,149.224335 275.650269,152.570343 272.140686,155.904480 
	C274.951080,152.619919 278.124695,149.347229 281.620605,145.976440 
z"/>
<path fill="#3FB4FC" opacity="1.000000" stroke="none" 
	d="
M102.964005,259.658081 
	C102.735413,260.512207 102.469788,261.018311 101.761932,261.766113 
	C100.867607,262.011749 100.415520,262.015686 99.963425,262.019653 
	C99.038635,261.235931 98.113846,260.452209 97.196182,259.086365 
	C97.467812,257.670685 97.732315,256.837128 97.996826,256.003571 
	C97.996826,256.003571 97.999786,256.000000 98.000809,255.999084 
	C99.643555,257.102112 101.285263,258.206055 102.964005,259.658081 
z"/>
<path fill="#80CDF7" opacity="1.000000" stroke="none" 
	d="
M233.702484,63.137478 
	C232.394409,62.618824 231.413513,62.129921 230.226105,61.393078 
	C232.875824,60.152592 236.103622,57.350822 238.160751,63.167229 
	C236.452927,63.167229 235.241287,63.167229 233.702484,63.137478 
z"/>
<path fill="#80CDF7" opacity="1.000000" stroke="none" 
	d="
M201.700806,60.885658 
	C199.926041,61.441208 197.877960,61.722141 195.208603,61.725380 
	C193.066666,60.930668 191.546005,60.413647 190.025360,59.896622 
	C190.025360,59.896622 190.020874,59.413185 190.025848,59.171272 
	C193.829727,59.489918 197.628616,60.050480 201.700806,60.885658 
z"/>
<path fill="#6CC1F5" opacity="1.000000" stroke="none" 
	d="
M220.232208,70.513336 
	C223.052216,68.930092 226.228638,67.499199 229.803741,66.096710 
	C226.997818,67.638641 223.793198,69.152168 220.232208,70.513336 
z"/>
<path fill="#59BDF7" opacity="1.000000" stroke="none" 
	d="
M249.998169,174.000000 
	C249.993820,174.749039 249.989456,175.498093 249.983215,176.621521 
	C249.882019,177.314316 249.697556,177.571701 249.211578,177.873672 
	C247.468109,178.143600 245.941025,178.307907 244.208389,177.932526 
	C244.006058,177.009995 244.009262,176.627136 244.012466,176.244278 
	C245.095383,175.547928 246.178284,174.851593 247.921814,174.070435 
	C249.054337,173.990417 249.526260,173.995209 249.998169,174.000000 
z"/>
<path fill="#6CC1F5" opacity="1.000000" stroke="none" 
	d="
M49.273827,241.078903 
	C52.059822,238.410446 54.477180,240.143921 56.996468,242.234924 
	C54.575195,242.138977 52.042210,241.752167 49.273827,241.078903 
z"/>
<path fill="#59BDF7" opacity="1.000000" stroke="none" 
	d="
M265.665985,161.056000 
	C264.144470,162.658722 262.272888,164.278946 260.022400,165.864029 
	C261.534271,164.243744 263.425110,162.658630 265.665985,161.056000 
z"/>
<path fill="#72C6F5" opacity="1.000000" stroke="none" 
	d="
M121.344254,68.919189 
	C120.973419,68.901764 120.988243,68.443657 120.993210,68.214371 
	C122.824951,67.435829 124.651726,66.886589 126.713242,66.567612 
	C125.203682,67.510796 123.459389,68.223709 121.344254,68.919189 
z"/>
<path fill="#5DBEF8" opacity="1.000000" stroke="none" 
	d="
M291.416382,133.644989 
	C290.834229,134.957825 289.964203,136.441620 288.780212,138.000824 
	C289.353668,136.656143 290.241089,135.236053 291.416382,133.644989 
z"/>
<path fill="#6CC1F5" opacity="1.000000" stroke="none" 
	d="
M167.664734,211.163483 
	C166.498306,212.000015 164.977386,212.812653 163.249725,213.392761 
	C164.465408,212.486694 165.887817,211.813126 167.664734,211.163483 
z"/>
<path fill="#5EBDF6" opacity="1.000000" stroke="none" 
	d="
M243.683365,176.263718 
	C244.009262,176.627136 244.006058,177.009995 244.003265,177.680542 
	C242.893265,178.300293 241.782852,178.632370 240.322205,178.975769 
	C241.099396,178.085785 242.226822,177.184479 243.683365,176.263718 
z"/>
<path fill="#59BDF7" opacity="1.000000" stroke="none" 
	d="
M256.845581,35.169716 
	C256.168396,35.984901 255.180557,36.915806 253.822891,37.773590 
	C254.480362,36.895458 255.507660,36.090443 256.845581,35.169716 
z"/>
<path fill="#6CC1F5" opacity="1.000000" stroke="none" 
	d="
M107.907913,268.412201 
	C108.842186,268.729218 109.883766,269.355011 110.998184,270.290070 
	C110.052429,269.973236 109.033836,269.347107 107.907913,268.412201 
z"/>
<path fill="#6CC1F5" opacity="1.000000" stroke="none" 
	d="
M100.025085,262.339966 
	C100.415520,262.015686 100.867607,262.011749 101.658150,262.032990 
	C102.322624,262.750519 102.648659,263.442810 103.018814,264.416077 
	C102.070869,264.018097 101.078804,263.339172 100.025085,262.339966 
z"/>
<path fill="#5EBDF6" opacity="1.000000" stroke="none" 
	d="
M250.103745,173.765747 
	C249.526260,173.995209 249.054337,173.990417 248.228058,173.968399 
	C248.752213,173.141266 249.630737,172.331360 250.805573,171.634323 
	C250.804382,172.341949 250.506851,172.936722 250.103745,173.765747 
z"/>
<path fill="#F2FAFF" opacity="1.000000" stroke="none" 
	d="
M222.424011,230.945984 
	C222.313126,229.874924 222.529587,228.745819 222.962891,227.337265 
	C223.036911,228.334518 222.894119,229.611221 222.424011,230.945984 
z"/>
<path fill="#80CDF7" opacity="1.000000" stroke="none" 
	d="
M265.799072,23.454048 
	C265.007690,23.812374 263.805359,24.036560 262.290405,23.897701 
	C261.977722,23.534655 261.972076,23.067940 261.972076,23.067940 
	C263.110779,23.151930 264.249481,23.235920 265.799072,23.454048 
z"/>
<path fill="#F2FAFF" opacity="1.000000" stroke="none" 
	d="
M220.315063,237.957001 
	C220.164520,237.146118 220.339783,236.294342 220.761200,235.223129 
	C220.885178,235.974503 220.763031,236.945297 220.315063,237.957001 
z"/>
<path fill="#59BDF7" opacity="1.000000" stroke="none" 
	d="
M261.723633,22.867691 
	C261.972076,23.067940 261.977722,23.534655 261.986389,23.767876 
	C261.035400,23.660427 260.075806,23.319759 259.031586,22.670521 
	C259.789734,22.463779 260.632446,22.565611 261.723633,22.867691 
z"/>
<path fill="#F2FAFF" opacity="1.000000" stroke="none" 
	d="
M222.962952,223.616852 
	C222.260818,223.967194 221.506363,223.987930 220.375275,223.984283 
	C220.969315,223.735657 221.939987,223.511444 222.962952,223.616852 
z"/>
<path fill="#4DBAFB" opacity="1.000000" stroke="none" 
	d="
M97.664307,256.051758 
	C97.732315,256.837128 97.467812,257.670685 97.067001,258.809326 
	C96.585648,259.066925 96.315071,258.899261 96.039398,258.380859 
	C96.417145,257.466858 96.874466,256.783417 97.664307,256.051758 
z"/>
<path fill="#5DBEF8" opacity="1.000000" stroke="none" 
	d="
M165.663269,22.993849 
	C165.567856,23.593042 165.170761,24.261755 164.461670,24.982216 
	C164.553650,24.377102 164.957611,23.720234 165.663269,22.993849 
z"/>
<path fill="#5DBEF8" opacity="1.000000" stroke="none" 
	d="
M227.255524,273.739258 
	C227.510269,273.182739 228.071609,272.635651 228.965958,272.121887 
	C228.720016,272.686371 228.141068,273.217499 227.255524,273.739258 
z"/>
<path fill="#5DBEF8" opacity="1.000000" stroke="none" 
	d="
M314.462341,147.323395 
	C314.480103,146.715332 314.763580,145.937332 315.365417,145.073090 
	C315.365204,145.709061 315.046631,146.431259 314.462341,147.323395 
z"/>
<path fill="#6CC1F5" opacity="1.000000" stroke="none" 
	d="
M181.372833,74.034027 
	C181.056595,73.672234 181.037109,73.203278 181.304688,72.347862 
	C181.946838,71.854393 182.301926,71.747383 182.656998,71.640381 
	C182.656998,71.640381 182.754684,71.741821 182.803802,71.791504 
	C182.458496,72.536407 182.064041,73.231628 181.372833,74.034027 
z"/>
<path fill="#6CC1F5" opacity="1.000000" stroke="none" 
	d="
M176.504257,83.263214 
	C176.514786,82.654892 176.794647,81.888275 177.391022,81.034767 
	C177.396240,81.666893 177.084915,82.385902 176.504257,83.263214 
z"/>
<path fill="#6CC1F5" opacity="1.000000" stroke="none" 
	d="
M171.395630,92.089645 
	C171.440628,91.504440 171.771103,90.802818 172.403992,90.024002 
	C172.364655,90.622284 172.022873,91.297760 171.395630,92.089645 
z"/>
<path fill="#6CC1F5" opacity="1.000000" stroke="none" 
	d="
M166.398285,100.097771 
	C166.425522,99.509331 166.737442,98.806892 167.343262,98.020584 
	C167.319092,98.619064 167.001022,99.301422 166.398285,100.097771 
z"/>
<path fill="#59BDF7" opacity="1.000000" stroke="none" 
	d="
M185.965408,110.358383 
	C186.540939,110.564659 187.206009,111.068474 187.864090,111.929955 
	C187.256378,111.743713 186.655670,111.199821 185.965408,110.358383 
z"/>
<path fill="#5DBEF8" opacity="1.000000" stroke="none" 
	d="
M316.485779,143.365341 
	C316.494843,142.747574 316.771545,141.955322 317.370911,141.075546 
	C317.380188,141.722305 317.066772,142.456573 316.485779,143.365341 
z"/>
<path fill="#5EBDF6" opacity="1.000000" stroke="none" 
	d="
M288.201752,34.737228 
	C287.994202,34.390671 287.988098,33.719269 288.200256,32.980484 
	C288.413422,33.412865 288.408325,33.912621 288.201752,34.737228 
z"/>
<path fill="#4CB9FA" opacity="1.000000" stroke="none" 
	d="
M123.517029,133.631882 
	C123.469032,134.264893 123.145012,135.072281 122.474792,135.960602 
	C122.499390,135.296432 122.870186,134.551346 123.517029,133.631882 
z"/>
<path fill="#5EBDF6" opacity="1.000000" stroke="none" 
	d="
M236.772293,180.426178 
	C236.483719,180.964401 235.898514,181.440109 234.993408,181.873657 
	C235.274246,181.342224 235.874969,180.852936 236.772293,180.426178 
z"/>
<path fill="#5DBEF8" opacity="1.000000" stroke="none" 
	d="
M318.469696,139.343140 
	C318.426514,138.748520 318.645020,137.980392 319.150330,137.099121 
	C319.201904,137.713867 318.966644,138.441742 318.469696,139.343140 
z"/>
<path fill="#E3E3E3" opacity="1.000000" stroke="none" 
	d="
M84.409721,185.727539 
	C84.562790,185.851105 84.583595,186.065933 84.604401,186.280777 
	C84.495415,186.126785 84.386436,185.972794 84.409721,185.727539 
z"/>
<path fill="#80CDF7" opacity="1.000000" stroke="none" 
	d="
M232.977051,64.990692 
	C233.073288,65.097466 233.193039,65.215385 233.312805,65.333298 
	C233.243179,65.285706 233.173553,65.238121 233.038727,65.073952 
	C232.973511,64.957367 233.000580,65.001846 232.977051,64.990692 
z"/>
<path fill="#5EBDF6" opacity="1.000000" stroke="none" 
	d="
M255.812943,168.254242 
	C255.935135,168.511810 255.755356,168.724121 255.309845,168.954163 
	C255.115768,168.682312 255.271378,168.428009 255.812943,168.254242 
z"/>
<path fill="#80CDF7" opacity="1.000000" stroke="none" 
	d="
M282.763794,23.049263 
	C282.737671,23.211575 282.663422,23.244669 282.625732,23.247246 
	C282.588043,23.249825 282.463470,22.842121 282.463470,22.842121 
	C282.463470,22.842121 282.789886,22.886951 282.763794,23.049263 
z"/>
<path fill="#5EBDF6" opacity="1.000000" stroke="none" 
	d="
M254.764542,169.134735 
	C254.798294,169.346008 254.574356,169.590897 254.099823,169.886902 
	C254.068420,169.681488 254.287628,169.424927 254.764542,169.134735 
z"/>
<path fill="#80CDF7" opacity="1.000000" stroke="none" 
	d="
M203.682770,225.020996 
	C204.282486,225.824875 204.492569,226.588928 204.857941,227.621475 
	C201.951920,228.741623 198.890625,229.593262 195.829330,230.444916 
	C195.583160,229.652512 195.336990,228.860107 195.090820,228.067703 
	C197.824921,227.038864 200.559021,226.010025 203.682770,225.020996 
z"/>
<path fill="#3FB4FC" opacity="1.000000" stroke="none" 
	d="
M113.960098,266.654755 
	C111.018707,264.904083 108.043289,262.802856 105.027710,260.355042 
	C107.967064,262.107025 110.946571,264.205627 113.960098,266.654755 
z"/>
<path fill="#3BB5FE" opacity="1.000000" stroke="none" 
	d="
M182.870331,71.305336 
	C182.301926,71.747383 181.946838,71.854393 181.314423,71.996033 
	C178.177734,71.661942 176.910034,72.869926 175.499207,75.585365 
	C168.319550,89.404083 160.769318,103.017334 150.038940,114.574493 
	C146.567642,118.313263 143.735657,122.645592 140.308716,126.854935 
	C137.182663,128.763931 134.359100,130.524399 131.349792,132.400696 
	C131.324219,131.878540 131.075577,131.171600 131.296692,130.672974 
	C135.940552,120.200935 140.909149,109.863487 145.241196,99.265480 
	C148.955338,90.179138 151.927811,80.790771 155.283768,71.556137 
	C156.217911,68.985680 156.625641,66.880852 152.392014,67.002640 
	C151.178864,66.100571 150.365372,65.199608 149.273148,64.170784 
	C147.936401,59.457130 143.854752,60.763618 140.924698,60.091080 
	C138.945541,59.636803 136.777725,60.004456 134.650833,59.234760 
	C139.598999,58.343441 143.611343,54.613659 149.690674,57.246841 
	C153.505722,58.899284 158.908340,56.886433 163.838409,56.195446 
	C165.123764,55.902729 166.169403,55.932606 167.647919,56.333447 
	C171.645187,58.461964 175.143448,60.392693 178.840057,61.803905 
	C179.445007,62.034851 180.924042,59.976162 181.999069,58.975700 
	C184.396225,59.301685 186.793365,59.627674 189.607941,59.925144 
	C191.546005,60.413647 193.066666,60.930668 194.795151,61.717537 
	C197.339661,66.437515 201.815384,67.096443 206.935059,63.374859 
	C207.643433,63.445156 208.286423,63.875008 208.978912,64.620026 
	C209.652817,66.405212 210.277237,67.875229 210.957932,69.698334 
	C209.270584,70.371323 207.526962,70.691208 205.324249,70.645096 
	C202.953354,68.534370 201.206726,67.920425 199.998138,70.989998 
	C194.359985,70.983429 188.721832,70.976860 182.870331,71.305336 
z"/>
<path fill="#40B4FA" opacity="1.000000" stroke="none" 
	d="
M200.414932,71.000908 
	C201.206726,67.920425 202.953354,68.534370 204.932892,70.638931 
	C203.610977,71.003128 202.221359,71.007469 200.414932,71.000908 
z"/>
<path fill="#40B4FA" opacity="1.000000" stroke="none" 
	d="
M181.638000,58.812065 
	C180.924042,59.976162 179.445007,62.034851 178.840057,61.803905 
	C175.143448,60.392693 171.645187,58.461964 168.041809,56.344482 
	C172.427521,56.872513 176.852234,57.760468 181.638000,58.812065 
z"/>
</svg>